<svg width="25" height="26" viewBox="0 0 25 26" fill="none" xmlns="http://www.w3.org/2000/svg">
<path d="M23.8281 0H23.4375V1.30467C23.4375 1.73522 23.1738 2.08748 22.8516 2.08748H20.8984C20.5762 2.08748 20.3125 1.73522 20.3125 1.30467V0H4.6875V1.30467C4.6875 1.73522 4.42383 2.08748 4.10156 2.08748H2.14844C1.82617 2.08748 1.5625 1.73522 1.5625 1.30467V0H1.17188C0.522461 0 0 0.698001 0 1.56561V23.4841C0 24.3517 0.522461 25.0497 1.17188 25.0497H1.5625V23.7451C1.5625 23.3145 1.82617 22.9623 2.14844 22.9623H4.10156C4.42383 22.9623 4.6875 23.3145 4.6875 23.7451V25.0497H20.3125V23.7451C20.3125 23.3145 20.5762 22.9623 20.8984 22.9623H22.8516C23.1738 22.9623 23.4375 23.3145 23.4375 23.7451V25.0497H23.8281C24.4775 25.0497 25 24.3517 25 23.4841V1.56561C25 0.698001 24.4775 0 23.8281 0ZM4.6875 20.092C4.6875 20.5225 4.42383 20.8748 4.10156 20.8748H2.14844C1.82617 20.8748 1.5625 20.5225 1.5625 20.092V17.4826C1.5625 17.0521 1.82617 16.6998 2.14844 16.6998H4.10156C4.42383 16.6998 4.6875 17.0521 4.6875 17.4826V20.092ZM4.6875 13.8295C4.6875 14.2601 4.42383 14.6124 4.10156 14.6124H2.14844C1.82617 14.6124 1.5625 14.2601 1.5625 13.8295V11.2202C1.5625 10.7897 1.82617 10.4374 2.14844 10.4374H4.10156C4.42383 10.4374 4.6875 10.7897 4.6875 11.2202V13.8295ZM4.6875 7.56711C4.6875 7.99765 4.42383 8.34992 4.10156 8.34992H2.14844C1.82617 8.34992 1.5625 7.99765 1.5625 7.56711V4.95776C1.5625 4.52722 1.82617 4.17496 2.14844 4.17496H4.10156C4.42383 4.17496 4.6875 4.52722 4.6875 4.95776V7.56711ZM17.9688 21.1357C17.9688 21.5663 17.7051 21.9185 17.3828 21.9185H7.61719C7.29492 21.9185 7.03125 21.5663 7.03125 21.1357V14.8733C7.03125 14.4427 7.29492 14.0905 7.61719 14.0905H17.3828C17.7051 14.0905 17.9688 14.4427 17.9688 14.8733V21.1357ZM17.9688 10.1765C17.9688 10.607 17.7051 10.9593 17.3828 10.9593H7.61719C7.29492 10.9593 7.03125 10.607 7.03125 10.1765V3.91402C7.03125 3.48348 7.29492 3.13122 7.61719 3.13122H17.3828C17.7051 3.13122 17.9688 3.48348 17.9688 3.91402V10.1765ZM23.4375 20.092C23.4375 20.5225 23.1738 20.8748 22.8516 20.8748H20.8984C20.5762 20.8748 20.3125 20.5225 20.3125 20.092V17.4826C20.3125 17.0521 20.5762 16.6998 20.8984 16.6998H22.8516C23.1738 16.6998 23.4375 17.0521 23.4375 17.4826V20.092ZM23.4375 13.8295C23.4375 14.2601 23.1738 14.6124 22.8516 14.6124H20.8984C20.5762 14.6124 20.3125 14.2601 20.3125 13.8295V11.2202C20.3125 10.7897 20.5762 10.4374 20.8984 10.4374H22.8516C23.1738 10.4374 23.4375 10.7897 23.4375 11.2202V13.8295ZM23.4375 7.56711C23.4375 7.99765 23.1738 8.34992 22.8516 8.34992H20.8984C20.5762 8.34992 20.3125 7.99765 20.3125 7.56711V4.95776C20.3125 4.52722 20.5762 4.17496 20.8984 4.17496H22.8516C23.1738 4.17496 23.4375 4.52722 23.4375 4.95776V7.56711Z" fill="white"/>
</svg>
