<svg width="26" height="19" viewBox="0 0 26 19" fill="none" xmlns="http://www.w3.org/2000/svg">
<path d="M3.9 8.1999C5.33406 8.1999 6.5 7.03397 6.5 5.5999C6.5 4.16584 5.33406 2.9999 3.9 2.9999C2.46594 2.9999 1.3 4.16584 1.3 5.5999C1.3 7.03397 2.46594 8.1999 3.9 8.1999ZM22.1 8.1999C23.5341 8.1999 24.7 7.03397 24.7 5.5999C24.7 4.16584 23.5341 2.9999 22.1 2.9999C20.6659 2.9999 19.5 4.16584 19.5 5.5999C19.5 7.03397 20.6659 8.1999 22.1 8.1999ZM23.4 9.4999H20.8C20.085 9.4999 19.4391 9.78834 18.9678 10.2555C20.605 11.1533 21.7669 12.7743 22.0187 14.6999H24.7C25.4191 14.6999 26 14.119 26 13.3999V12.0999C26 10.6658 24.8341 9.4999 23.4 9.4999ZM13 9.4999C15.5147 9.4999 17.55 7.46459 17.55 4.9499C17.55 2.43521 15.5147 0.399902 13 0.399902C10.4853 0.399902 8.45 2.43521 8.45 4.9499C8.45 7.46459 10.4853 9.4999 13 9.4999ZM16.12 10.7999H15.7828C14.9378 11.2062 13.9994 11.4499 13 11.4499C12.0006 11.4499 11.0662 11.2062 10.2172 10.7999H9.88C7.29625 10.7999 5.2 12.8962 5.2 15.4799V16.6499C5.2 17.7265 6.07344 18.5999 7.15 18.5999H18.85C19.9266 18.5999 20.8 17.7265 20.8 16.6499V15.4799C20.8 12.8962 18.7037 10.7999 16.12 10.7999ZM7.03219 10.2555C6.56094 9.78834 5.915 9.4999 5.2 9.4999H2.6C1.16594 9.4999 0 10.6658 0 12.0999V13.3999C0 14.119 0.580937 14.6999 1.3 14.6999H3.97719C4.23312 12.7743 5.395 11.1533 7.03219 10.2555Z" fill="white"/>
</svg>
